<svg xmlns="http://www.w3.org/2000/svg" xml:space="preserve" width="2000" height="470"><path d="M223.366 274.767h35.213c-.559-1.383-16.581-41.314-17.5-43.604-.936 2.289-17.148 42.221-17.713 43.604m422.691-92.932c10.567 14.518 16.296 33.236 17.182 50.406 15.862-6.371 23.138-17.379 23.138-27.508 0-12.338-11.455-23.568-32.172-23.568-2.422 0-5.289 0-8.148.67m-44.95 46.449c15.644 8.365 35.028 11.225 52.878 6.82-.882-16.283-7.266-36.094-18.506-50.203-14.762 6.397-29.526 20.041-34.372 43.383m26.217-51.955c-8.156-7.041-19.827-12.543-31.726-12.543-14.985 0-26.66 9.238-26.66 25.539 0 10.557 5.509 21.789 12.775 27.287 9.254-20.482 25.34-33.683 45.611-40.283m219.695 117.127c8.587-12.551 12.336-26.639 12.336-42.498 0-9.684-.661-16.072-2.644-23.342-37.896 9.477-54.203 40.072-54.203 61.648 0 12.773 6.829 22.238 18.284 22.238 7.719.001 18.517-6.825 26.227-18.046m117.17-79.484c0-9.238-1.544-17.393-5.732-25.766-29.743 10.805-39.659 31.711-39.659 48.223 0 13.213 6.832 23.562 14.1 23.562 14.103 0 31.291-15.629 31.291-46.019m73.148 1.767c0-16.303-8.815-31.266-33.924-31.266h-18.301v62.736h17.85c21.816.001 34.375-15.188 34.375-31.47m629.887 15.756c0-11.525-7.38-18.4-19.733-18.4h-9.816v39.869h8.054c14.822 0 21.495-12.561 21.495-21.469m246.053 80.449h-88.334v-9.875h15.429v-69.92c0-19.055-2.669-19.055-6.08-19.055h-9.349v-9.875h86.128v33.43h-13.133s-2.127-22.629-2.218-23.555h-35.555v39.869h19.643v-12.768h8.794v35.414h-8.794v-14.074h-19.643v40.533h38.638c.111-.92 2.661-24.445 2.661-24.445h11.812v34.321zm-103.771-67.359h-13.562s-4.283-30.594-4.407-31.49h-22.588v69.91c0 19.064 2.521 19.064 6.295 19.064h9.142v9.875h-50.651v-9.875h15.42v-88.975h-22.58c-.124.896-4.407 31.49-4.407 31.49h-13.553V203.22h100.893v41.365zm-106.398 67.359h-25.96l-1.71-2.896c-7.623-12.939-21.793-37.049-31.039-47.512h-6.725v21.469c0 19.064 2.5 19.064 6.295 19.064h9.125v9.875h-50.66v-9.875h15.43v-69.92c0-19.055-2.675-19.055-6.063-19.055h-9.366v-9.875h44.825c33.642 0 38.666 17.162 38.666 27.383 0 12.84-8.885 23.938-22.593 28.596 7.765 7.982 16.894 23.268 22.998 33.49l2.604 4.354c.702 1.18 3.231 5.027 5.921 5.027h8.252v9.875zm-116.527 0h-88.312v-9.875h15.411v-69.92c0-19.055-2.682-19.055-6.062-19.055h-9.35v-9.875h86.115v33.43h-13.142s-2.118-22.629-2.209-23.555h-35.55v39.869h19.646v-12.768h8.786v35.414h-8.786v-14.074h-19.646v40.533h38.649c.091-.92 2.636-24.445 2.636-24.445h11.812v34.321zm-84.816-140.908h-8.695c-6.424 0-8.055 1.191-9.424 4.514l-56.531 137.717h-12.847s-56.976-138.367-56.976-138.383c-1.129-2.801-3.203-3.848-7.656-3.848h-10.229v-11.197h54.615v11.197h-15.164c.584 1.451 45.165 110.188 46.128 112.541.961-2.354 45.335-111.09 45.918-112.541h-14.943v-11.197h45.805v11.197zm-197.202 140.908h-88.329v-9.875h15.429v-69.92c0-19.055-2.682-19.055-6.079-19.055h-9.35v-9.875h86.128v33.43h-13.152s-2.102-22.629-2.193-23.555h-35.559v39.869h19.649v-12.768h8.773v35.414h-8.773v-14.074h-19.649v40.533h38.643c.106-.92 2.648-24.445 2.648-24.445h11.814v34.321zm-106.713-98.849h-15.411v98.85h-.534l-7.905-.195s-67.739-78.457-69.563-80.574v70.895h15.428v9.875h-42.933v-9.875h15.416v-69.92c0-19.055-2.674-19.055-6.067-19.055h-9.349v-9.875l30.236.176s61.357 71.006 63.187 73.121v-63.422h-15.42v-9.875h42.916v9.874zm-168.881 40.285 21.595 54.387c16.745 39.18 34.801 48.213 45.826 48.213 3.083-6.17 8.812-15.633 16.955-15.633 5.066 0 9.255 3.959 11.688 13.201-7.71 6.615-15.639 10.354-28.204 10.354-33.708 0-56.623-21.141-70.947-60.764l-19.169-46.451h-21.6v12.324l-5.5 31.268c-5.509 15.623-17.85 27.525-38.115 27.525-16.974 0-30.634-9.26-30.634-27.307 0-12.551 4.411-20.039 11.021-27.957 9.254 2.418 13.219 6.6 13.219 11.662 0 8.15-8.811 13.652-14.982 16.74-1.101 10.129 8.812 18.273 20.271 18.273 10.135 0 22.911-6.172 22.911-27.975v-45.559c-7.268 14.738-19.166 22.451-29.964 22.451-12.556 0-23.357-10.129-23.357-31.484 0-19.594 12.122-43.145 42.305-55.932-7.715-7.029-18.728-10.779-29.74-10.779-17.625 0-35.036 10.779-36.356 29.727 5.947 2.414 14.319 7.26 14.319 13.43 0 3.961-3.966 7.268-12.556 9.018-6.176-6.152-9.701-15.188-9.701-22.9 0-20.469 18.291-37.193 43.417-37.193 13.876 0 31.278 5.057 39.433 15.635 3.753-1.117 9.473-2.859 13.222-3.311 8.376-1.098 19.828-7.932 18.508-17.604-5.509-1.986-11.895-5.949-11.895-11.242 0-3.295 3.737-6.824 11.895-8.365 5.951 5.297 9.701 12.992 9.701 19.607 0 5.709-3.092 12.549-9.701 17.604h12.999c40.984 0 53.101 20.041 53.101 39.852-.003 21.581-15.645 33.904-29.965 39.185m-145.817-2.422c0 38.537-31.949 77.051-79.981 77.051-48.036 0-79.321-38.291-79.321-76.826 0-27.084 10.794-45.355 25.997-59.012l3.311 3.309v23.775c-3.752 8.361-5.513 17.395-5.513 30.605 0 44.693 28.866 67.592 55.75 66.715l6.166-.219c-10.135-3.09-16.972-14.76-16.972-26.438 0-26.406 18.301-58.326 62.137-68.027-6.609-12.104-20.71-20.24-38.778-20.24-9.912 0-20.043 3.955-20.043 13.641 4.847 1.764 10.573 5.723 10.573 11.004 0 3.309-1.982 7.711-10.135 9.256-5.29-5.504-8.596-13.213-8.596-18.719 0-12.549 12.118-23.328 29.967-23.328 11.455 0 19.39 3.736 26.88 8.146-9.258-11.23-23.354-19.162-38.116-19.162-23.577 0-37.017 18.713-37.017 37.209 0 2.641.438 8.139 2.863 12.768 6.169 3.086 14.983 8.365 14.983 16.504 0 5.074-3.968 9.258-13.223 11.678-8.148-9.689-13.222-24.668-13.222-37.209 0-27.959 16.748-51.291 49.141-51.291 30.844-.001 73.149 27.734 73.149 78.81m-173.868 34.574c0 17.605-17.622 42.477-57.72 42.477-40.107 0-77.117-28.609-77.117-79.039 0-5.941.881-13.418 2.201-19.145-13.442-10.57-19.823-24.664-19.823-37.879 0-19.799 13.876-37.193 38.773-37.193 17.63 0 32.827 8.143 43.405 18.715 5.284-.895 8.592-1.32 14.543-1.32 26.877 0 50.016 13.643 50.016 35.674 0 16.057-12.339 32.564-40.543 38.953-.881 21.582-15.424 35.676-36.794 37.428-4.848-8.146-4.629-14.078-1.106-17.611 5.736-5.727 15.424-3.529 22.038-1.318 4.626-3.961 5.723-11.021 6.608-16.729-16.087 2.859-37.015.426-55.08-7.713 0 0-.44 4.627-.44 8.139 0 39.852 23.571 68.258 56.841 68.258 29.531 0 43.629-20.689 43.629-33.025 0-6.824-4.63-9.898-9.259-9.898-3.079 0-7.043.877-9.255 3.512 2.429 5.283 3.747 12.775 0 16.512-2.418 2.436-7.489 2.436-14.313-2.197-.882-15.188 10.136-26.201 25.117-26.201 9.472-.003 18.279 6.811 18.279 19.6m-38.307-166.121c-3.22 21.682-13.234 31.729-27.899 44.152-6.574-5.854-12.585-9.801-20.5-12.834 13.872-8.301 24.347-15.557 27.262-34.285-15.174 2.494-15.246 9.777-15.246 9.777s-7.803 3.721-12.641-1.65c-4.83-5.377-2.232-11.818 3.762-19.498 5.331-6.85 2.605-10.797 2.605-10.797s.862-1.734 2.381-4.074l-43.04-37.623 1.722-2.02 48.7 31.182h.013c-2.489-3.752-4.482-7.199-4.482-10.348 0 0 7.708 4.371 14.549 5.053 11.032 1.1 26.767 16.479 22.814 42.965M546.776 311.944H496.13v-9.875h15.427v-69.92c0-19.055-2.685-19.055-6.08-19.055h-9.347v-9.875h50.646v9.875h-15.425v69.91c0 19.064 2.504 19.064 6.3 19.064h9.125v9.876zm-71.824 0H365.255v-11.191h19.612V190.101c0-19.064-2.512-19.064-6.303-19.064h-13.31V159.84h62.1v11.197H407.75v129.717h50.118l4.188-28.404h12.896v39.594zm-173.19 0H258.61v-9.875h11.199c-.547-1.334-7.023-17.252-7.276-17.867h-43.121c-.25.633-6.543 16.533-7.068 17.867h11.647v9.875h-36.108v-9.875h11.854l40.102-98.85h9.982l38.024 93.684c1.912 4.656 6.458 5.166 8.318 5.166h5.6v9.875zm-126.247 0H65.819v-11.191H85.43V190.101c0-19.064-2.504-19.064-6.295-19.064H65.819V159.84h62.103v11.197h-19.606v129.717h50.12c.129-.893 4.184-28.404 4.184-28.404h12.896v39.594zM2000 0H0v470h2000V0z"/></svg>
